<?xml version="1.0" encoding="UTF-8"?>
<svg xmlns="http://www.w3.org/2000/svg" id="Layer_1" data-name="Layer 1" viewBox="0 0 24 24">
  <path d="m7.433,14.253c.538-.385,1.12-.923,1.453-1.605.17-.349.146-.756-.062-1.09-.218-.35-.593-.558-1.002-.558h-3.645c-.409,0-.784.208-1.002.558-.209.334-.232.741-.062,1.09.333.683.915,1.22,1.453,1.605-2.439.848-4.567,3.696-4.567,6.5,0,1.785,1.458,3.237,3.25,3.237h5.5c1.792,0,3.25-1.452,3.25-3.237,0-2.804-2.128-5.652-4.567-6.5Zm-3.41-2.165c.013-.021.062-.088.154-.088h3.645c.092,0,.141.067.154.088.026.042.03.083.012.122-.44.901-1.542,1.518-1.988,1.739-.447-.221-1.548-.838-1.988-1.739-.019-.038-.015-.079.012-.122Zm4.727,10.902H3.25c-1.241,0-2.25-1.003-2.25-2.237,0-2.796,2.57-5.753,5-5.753s5,2.957,5,5.753c0,1.234-1.009,2.237-2.25,2.237ZM21,0H6c-1.654,0-3,1.346-3,3v5.5c0,.276.224.5.5.5s.5-.224.5-.5V3c0-1.103.897-2,2-2s2,.897,2,2,.897,2,2,2h10v14.5c0,1.93-1.57,3.5-3.5,3.5h-3c-.276,0-.5.224-.5.5s.224.5.5.5h3c2.481,0,4.5-2.019,4.5-4.5V5h1c1.103,0,2-.897,2-2,0-1.654-1.346-3-3-3Zm1,4h-12c-.551,0-1-.449-1-1,0-.768-.29-1.469-.766-2h12.766c1.103,0,2,.897,2,2,0,.551-.449,1-1,1Z"/>
</svg>
